PathFileType	4	(X/Y/Z)	D:\TRACE\spotREDO_2-26-24\spot_justArm_Motion_2_1-v60.trc
DataRate	CameraRate	NumFrames	NumMarkers	Units	OrigDataRate	OrigDataStartFrame	OrigNumFrames
100.00	100.00	      31	9	mm	100.00	876	      7000
Frame#	Time	front left toe			Front right toe			aft left toe			aft right toe			Arm			FL body			FR body			AL Body			AR Body			
		X1	Y1	Z1	X2	Y2	Z2	X3	Y3	Z3	X4	Y4	Z4	X5	Y5	Z5	X6	Y6	Z6	X7	Y7	Z7	X8	Y8	Z8	X9	Y9	Z9	

876	8.750	-248.60666	13.88400	-197.86862	178.02638	12.67525	-124.10185	-356.19458	39.55609	423.64395	72.37289	39.10209	434.39114	-59.01659	797.52155	-748.86090	-66.33936	557.47955	-235.63028	87.26153	564.00757	-210.49173	-218.79425	548.79639	634.79419	-71.85183	550.72455	661.39148	
877	8.760	-249.18549	13.39893	-198.32907	177.28798	11.73256	-124.62954	-356.60193	40.31160	423.28799	71.77241	39.62671	434.13647	-59.76296	798.44037	-748.97552	-67.36119	556.89105	-235.87656	86.10560	563.54999	-210.71513	-220.37198	549.96533	634.22485	-73.56789	551.57813	660.83173	
878	8.770	-249.56860	13.17197	-198.49448	176.61842	11.86314	-124.53361	-357.02579	41.03048	423.29773	70.58372	40.27256	433.81015	-60.74425	799.03546	-749.36829	-68.54206	556.67719	-236.40700	84.99752	563.15161	-211.15956	-221.39206	550.87317	633.95758	-74.84172	552.32526	660.37299	
879	8.780	-250.30772	12.85665	-198.73074	175.81604	11.16659	-125.20218	-357.71384	41.81625	422.94220	69.81860	41.02261	433.42465	-61.10878	799.42474	-749.34210	-69.58626	556.52252	-236.70987	84.00616	562.51166	-211.38867	-222.63707	551.90228	633.42035	-76.11208	553.40637	660.09595	
880	8.790	-250.98097	12.40983	-198.92041	175.58873	11.50281	-125.13639	-358.30673	42.43821	422.48065	69.55380	42.15855	433.20566	-62.03782	799.98273	-750.13641	-70.56312	555.86792	-236.76707	83.16515	562.07959	-211.67979	-223.85022	553.08575	633.23566	-77.40052	554.32031	659.53741	
881	8.800	-251.51871	11.92779	-199.37091	175.04201	10.93512	-125.68763	-358.84094	42.98032	422.05441	69.85280	42.81070	433.02933	-63.26130	800.54700	-750.37415	-71.96725	555.47150	-237.70656	81.66235	561.44409	-212.19836	-225.09346	554.23761	632.84607	-78.28396	555.45538	659.21808	
882	8.810	-251.76259	11.60233	-199.44385	174.65323	10.73082	-125.89141	-359.22766	43.66297	421.76645	69.11481	43.74437	432.45538	-64.13461	800.77527	-750.56915	-72.99036	554.88470	-237.85446	80.68102	560.87762	-212.53273	-226.04414	555.49182	632.35492	-79.46529	556.63800	658.85559	
883	8.820	-252.29575	11.07439	-199.68770	174.28682	10.53262	-126.11260	-359.35809	44.03725	421.77240	68.61644	44.12218	432.25772	-64.93234	800.79718	-750.71814	-74.06424	554.28052	-238.11540	79.38089	560.16235	-213.04535	-227.37263	556.81195	632.12427	-80.79754	557.69635	658.50189	
884	8.830	-252.64035	10.46449	-200.03273	173.67859	10.52898	-126.43343	-359.81763	45.02210	421.32642	68.13197	44.73723	431.82458	-65.85821	801.02625	-751.04553	-75.30498	553.80469	-238.72876	78.56081	559.47339	-213.38318	-228.23027	557.82990	631.98004	-81.57260	558.75293	658.07013	
885	8.840	-253.05209	10.18469	-200.20311	173.55907	9.51588	-127.07884	-360.28641	45.83642	420.92352	67.79905	45.78230	431.66214	-66.80798	801.14459	-751.18713	-76.13497	553.21747	-238.80853	77.25568	558.87299	-213.74380	-229.30144	559.10925	631.20361	-82.49014	559.99573	657.73596	
886	8.850	-253.35239	9.94712	-200.39539	173.89455	9.83604	-127.09293	-360.16251	46.47400	420.54431	67.89478	46.55954	431.49966	-67.63312	801.18134	-751.28259	-77.55020	552.87939	-239.39690	76.46126	558.33466	-214.12511	-230.14160	560.38922	630.96149	-83.26070	561.21472	657.64081	
887	8.860	-253.45996	9.35411	-200.62286	173.22131	9.88468	-127.19624	-360.74976	46.84642	420.47922	67.56607	47.24264	431.13715	-68.13963	801.14655	-751.48273	-78.67220	552.53497	-239.87564	74.93303	557.81519	-214.66754	-231.10211	561.52307	630.96649	-84.85134	562.25061	656.69183	
888	8.870	-253.52278	8.98702	-200.76276	173.06453	9.65768	-127.50561	-359.99777	46.93946	420.46689	67.32410	47.91446	430.69687	-69.30138	800.92712	-751.88745	-79.74271	551.95380	-240.05881	74.00427	557.45294	-215.04878	-232.19629	562.73700	630.25708	-85.39892	563.45233	656.47766	
889	8.880	-253.69632	8.59803	-200.96687	172.83681	9.62404	-127.66593	-360.40979	47.85112	419.87900	67.18413	48.35179	430.28079	-69.72478	800.51709	-752.08618	-80.77171	551.47528	-240.48564	72.76796	556.91632	-215.43253	-233.00609	563.77124	629.84149	-86.22004	564.55145	656.35846	
890	8.890	-253.96588	8.31153	-201.17802	172.74525	9.47093	-127.81784	-360.61356	48.49355	419.56848	66.94359	49.05282	430.12589	-70.28929	800.32922	-752.37946	-81.98346	550.84918	-241.00739	71.69740	556.43927	-215.75769	-233.98503	565.00256	629.67816	-87.43250	565.67676	655.68170	
891	8.900	-254.10986	8.08407	-201.33815	172.99641	9.64503	-127.74390	-360.69745	49.21570	419.48654	67.03574	49.83431	429.75812	-70.85696	799.85339	-752.61365	-82.77511	550.34479	-241.28606	70.71180	555.80707	-216.23813	-234.81877	566.26105	629.11426	-88.09686	566.80353	655.34393	
892	8.910	-254.21060	7.55452	-201.54562	172.81770	9.11055	-128.15028	-360.66364	49.62111	419.22083	67.13112	50.66994	429.64777	-71.21685	799.42480	-752.71906	-84.08362	549.79907	-241.59914	69.67708	555.29669	-216.74586	-235.72214	567.19354	628.69318	-88.66454	567.95679	655.30237	
893	8.920	-254.20114	7.12531	-201.68420	172.84982	9.28357	-128.19920	-360.64325	50.15940	418.86807	66.73580	51.14334	429.24683	-71.59800	799.08057	-753.00482	-84.95711	549.23993	-241.87381	68.71336	554.72717	-217.01192	-236.70903	568.33832	628.57922	-89.71336	568.96423	654.50177	
894	8.930	-254.13025	6.60051	-201.78378	173.03067	9.13367	-128.53123	-360.58240	50.46743	418.59845	66.87982	51.50625	428.97144	-71.91655	798.43896	-753.33618	-86.04783	548.70728	-242.21429	67.75259	554.06628	-217.34508	-237.38762	569.52985	628.12091	-90.86810	570.18054	654.08856	
895	8.940	-254.34381	6.32369	-201.97092	172.60010	8.41246	-129.34305	-360.45163	50.80150	418.49756	66.98035	52.32783	428.64645	-72.19337	797.97467	-753.49609	-86.80147	548.24060	-242.63937	66.76139	553.59491	-217.70567	-238.26242	570.41901	627.54626	-91.32242	571.16650	654.08728	
896	8.950	-254.18765	6.06089	-202.11314	172.84192	8.40360	-129.51979	-360.40399	51.39790	418.05954	67.08566	53.06727	428.27472	-72.73744	797.40686	-753.68591	-87.76828	547.70361	-243.24379	65.80299	552.87482	-218.15781	-239.13248	571.65784	627.32806	-92.56800	572.34589	653.31696	
897	8.960	-253.97476	5.75968	-202.11713	173.19910	8.30327	-129.52634	-360.26443	51.94317	417.77408	67.08066	53.36989	428.04376	-72.78956	797.07074	-753.97186	-88.55749	546.82227	-243.37889	65.10453	552.35577	-218.56432	-239.97638	572.79761	626.86609	-93.46933	573.49707	652.94470	
898	8.970	-253.71970	5.35885	-202.43437	173.43126	8.32406	-129.44009	-359.88940	52.16481	417.74179	67.37391	53.92410	427.80798	-73.03583	796.54303	-754.26575	-89.37994	546.44922	-243.76358	64.11880	551.77374	-219.04607	-240.88893	573.78668	626.35541	-94.21358	574.46625	652.57153	
899	8.980	-253.37030	4.92720	-202.81549	173.70941	8.12833	-129.63416	-359.79581	52.81408	417.25748	67.46422	54.50631	427.55438	-73.01115	795.80151	-754.39252	-90.28593	545.69421	-244.16125	63.60046	550.92645	-219.26736	-241.85194	574.98914	625.95203	-95.18593	575.52606	652.18408	
900	8.990	-253.18112	4.69757	-202.86340	174.05220	8.08929	-129.65034	-359.46970	53.21690	417.32495	67.82552	55.43468	427.23758	-73.15126	795.32544	-754.53638	-90.82597	544.97882	-244.69742	62.89240	550.09631	-219.44533	-242.43346	576.02240	625.75891	-95.92057	576.60925	651.77057	
901	9.000	-253.02190	4.54552	-202.99077	174.65344	7.74541	-129.81729	-359.29907	53.66283	417.04642	68.49815	55.85902	427.01007	-73.27988	794.66840	-754.37006	-91.50420	544.26910	-244.78241	62.07961	549.76984	-220.10011	-243.14481	577.02148	625.02094	-96.51793	577.59003	651.36365	
902	9.010	-252.80969	4.44616	-203.10829	174.65494	7.54866	-130.09081	-358.95276	53.82817	416.84201	68.64413	56.21733	426.76569	-73.73457	794.24854	-754.56500	-92.00402	543.98535	-245.07248	61.48633	549.32574	-220.47820	-243.98985	577.80463	624.67639	-97.06965	578.29095	651.29907	
903	9.020	-252.23302	4.12847	-203.38878	175.02390	8.38052	-130.15358	-358.67117	53.98067	416.53009	69.17560	56.79615	426.65262	-74.21294	793.43549	-755.18561	-92.17129	543.91650	-245.04172	61.01218	549.04449	-220.65221	-244.77115	578.69012	624.62372	-98.15423	578.92401	650.69189	
904	9.030	-251.72144	3.82275	-203.46677	175.32565	8.17845	-130.39743	-358.28040	54.15743	416.39084	69.50917	57.38312	426.46817	-75.25834	792.05829	-756.23999	-92.70450	544.18524	-245.33200	60.71193	548.82562	-220.67758	-245.40169	579.18079	624.18347	-98.91012	579.20184	650.55817	
905	9.040	-251.09808	3.65582	-203.47417	175.92149	7.66169	-130.70932	-358.14514	54.43147	416.13947	69.74422	57.66584	426.37131	-76.26818	790.20142	-757.40405	-92.98857	544.36945	-245.70395	60.70233	548.55499	-220.53455	-245.98068	579.88568	623.85083	-99.47115	579.38025	650.45129	
906	9.050	-250.74995	3.65389	-203.57973	176.35164	7.66005	-130.69769	-357.83298	54.87618	415.86176	69.85423	57.89708	426.06744	-77.52560	787.44794	-759.12079	-93.18026	544.63916	-245.76607	60.55544	548.61951	-220.55035	-246.65009	580.59680	623.72693	-100.20705	579.86176	650.29718	
